<svg xmlns="http://www.w3.org/2000/svg" viewBox="0 0 256 256">
  <defs>
    <linearGradient id="bg" x1="0%" y1="0%" x2="0%" y2="100%">
      <stop offset="0%" stop-color="#182033" />
      <stop offset="100%" stop-color="#0d1117" />
    </linearGradient>
    <linearGradient id="flame" x1="0%" y1="0%" x2="0%" y2="100%">
      <stop offset="0%" stop-color="#f97316" />
      <stop offset="55%" stop-color="#fb923c" />
      <stop offset="100%" stop-color="#facc15" />
    </linearGradient>
  </defs>

  <rect x="8" y="8" width="240" height="240" rx="56" fill="url(#bg)" />

  <path
    d="M128 44c6 20-4 34-16 48-14 17-26 31-26 53 0 24 18 44 42 44s42-20 42-44c0-20-10-34-24-49 2 16-2 27-12 36 1-25-10-42-26-57z"
    fill="url(#flame)"
  />

  <path
    d="M128 96c-3 11-12 18-18 26-7 9-10 17-10 27 0 15 12 27 28 27s28-12 28-27c0-10-4-18-11-26-1 8-5 14-12 18 0-16-5-30-15-45z"
    fill="#fff4d6"
    opacity="0.9"
  />
</svg>